<svg width="24" height="24" viewBox="0 0 24 24" fill="none" xmlns="http://www.w3.org/2000/svg">
<path d="M8.88667 21.3333C9.7151 21.3333 10.3867 20.6617 10.3867 19.8333C10.3867 19.0048 9.7151 18.3333 8.88667 18.3333C8.05825 18.3333 7.38667 19.0048 7.38667 19.8333C7.38667 20.6617 8.05825 21.3333 8.88667 21.3333Z" fill="#023A09"/>
<path d="M18 21.3333C18.8284 21.3333 19.5 20.6617 19.5 19.8333C19.5 19.0048 18.8284 18.3333 18 18.3333C17.1716 18.3333 16.5 19.0048 16.5 19.8333C16.5 20.6617 17.1716 21.3333 18 21.3333Z" fill="#023A09"/>
<path d="M22.0533 3.57991C21.9913 3.50343 21.9131 3.44165 21.8243 3.399C21.7356 3.35635 21.6385 3.33389 21.54 3.33324H7.66L8.09333 4.66658H20.6667L18.8867 12.6666H8.88666L5.84 3.01991C5.80704 2.91755 5.74982 2.82468 5.6732 2.74922C5.59658 2.67377 5.50285 2.61796 5.4 2.58658L2.66666 1.74658C2.58262 1.72075 2.49431 1.71173 2.40678 1.72003C2.31924 1.72833 2.23421 1.7538 2.15651 1.79496C1.99961 1.8781 1.88216 2.02017 1.83 2.18991C1.77784 2.35965 1.79524 2.54316 1.87838 2.70006C1.96153 2.85697 2.10359 2.97442 2.27333 3.02658L4.66666 3.75991L7.72667 13.4266L6.63333 14.3199L6.54666 14.4066C6.27622 14.7182 6.12293 15.1145 6.1132 15.527C6.10346 15.9395 6.23789 16.3425 6.49333 16.6666C6.67504 16.8875 6.90594 17.0629 7.16756 17.1787C7.42918 17.2945 7.71426 17.3474 8 17.3332H19.1267C19.3035 17.3332 19.473 17.263 19.5981 17.138C19.7231 17.013 19.7933 16.8434 19.7933 16.6666C19.7933 16.4898 19.7231 16.3202 19.5981 16.1952C19.473 16.0701 19.3035 15.9999 19.1267 15.9999H7.89333C7.81656 15.9973 7.74177 15.9749 7.67617 15.9349C7.61057 15.895 7.55639 15.8388 7.51886 15.7717C7.48133 15.7047 7.46172 15.6292 7.46192 15.5523C7.46211 15.4755 7.48212 15.4001 7.52 15.3332L9.12666 13.9999H19.42C19.5741 14.0037 19.7248 13.9539 19.8463 13.8591C19.9679 13.7643 20.0528 13.6303 20.0867 13.4799L22.2 4.14658C22.2203 4.04719 22.2176 3.94448 22.1922 3.84629C22.1668 3.74809 22.1193 3.65698 22.0533 3.57991V3.57991Z" fill="#023A09"/>
</svg>
